# xmcd
#
# Track frame offsets:
#   150
#   10971
#   22689
#   35464
#   41429
#   52206
#   62272
#   69149
#   75619
#   83357
#   91186
#   100386
#   115724
#   128188
#   140074
#   151234
#
# Disc length: 2171 seconds
#
# Revision: 0
# Processed by: cddbd v1.5.2PL0 Copyright (c) Steve Scherf et al.
# Submitted via: uFREEDB 1.6.0
#
DISCID=b8087910
DTITLE=Reeves, Jim - HaveI Told You Lately That I LoveYou
DYEAR=2004
DGENRE=country
TTITLE0=If Heartaches Are The Fashion
TTITLE1=I've Lived A Lot In My Time
TTITLE2=How's The World Treating You
TTITLE3=Have I Told You Lately That I Love You
TTITLE4=I Love You More
TTITLE5=Just Call Me Lonesome
TTITLE6=Everywhere You Go
TTITLE7=I'm Beginning To Forget You
TTITLE8=Till The End Of The World
TTITLE9=Roly Poly
TTITLE10=Home
TTITLE11=Blue Side Of Lonesome
TTITLE12=When God Dips His Love In My Heart
TTITLE13=My Final Affair
TTITLE14=Just Walking In The Rain
TTITLE15=Welcome To My World
EXTD=
EXTT0=
EXTT1=
EXTT2=
EXTT3=
EXTT4=
EXTT5=
EXTT6=
EXTT7=
EXTT8=
EXTT9=
EXTT10=
EXTT11=
EXTT12=
EXTT13=
EXTT14=
EXTT15=
PLAYORDER=
